<?xml version="1.0" standalone="no"?>
<!DOCTYPE svg PUBLIC "-//W3C//DTD SVG 20010904//EN"
 "http://www.w3.org/TR/2001/REC-SVG-20010904/DTD/svg10.dtd">
<svg version="1.0" xmlns="http://www.w3.org/2000/svg"
 width="950.000000pt" height="950.000000pt" viewBox="0 0 950.000000 950.000000"
 preserveAspectRatio="xMidYMid meet">
<metadata>
Created by potrace 1.14, written by Peter Selinger 2001-2017
</metadata>
<g transform="translate(0.000000,950.000000) scale(0.100000,-0.100000)"
fill="#000000" stroke="none">
<path d="M5191 7973 c-7 -53 -14 -104 -16 -113 -1 -8 -6 -37 -9 -65 -4 -27 -9
-61 -11 -75 -8 -56 -15 -108 -21 -155 -3 -27 -8 -58 -10 -68 -1 -10 -10 -70
-19 -135 -9 -64 -18 -128 -20 -142 -2 -14 -6 -47 -10 -75 -7 -55 -14 -104 -21
-150 -3 -16 -7 -48 -9 -70 -3 -23 -11 -84 -19 -136 -8 -52 -17 -116 -21 -144
-3 -27 -12 -93 -20 -145 -8 -52 -17 -117 -20 -145 -3 -27 -8 -61 -10 -75 -2
-14 -7 -45 -10 -70 -3 -25 -8 -52 -10 -60 -10 -33 0 -36 225 -67 19 -2 47 -6
62 -9 34 -5 24 -53 93 446 2 14 6 43 10 65 3 22 7 54 9 70 5 37 16 113 21 140
2 11 4 32 4 48 1 24 4 27 29 22 15 -2 50 -7 77 -11 28 -3 86 -11 129 -17 l79
-12 65 -175 c35 -96 81 -222 102 -280 65 -181 143 -395 145 -398 2 -3 94 -19
155 -27 75 -9 187 -26 210 -30 26 -5 44 -58 -153 456 l-163 426 50 13 c94 23
158 61 232 134 112 112 164 245 170 432 6 171 -42 302 -150 410 -91 91 -171
126 -376 163 -367 67 -497 90 -535 95 -22 3 -71 10 -110 16 -120 17 -110 23
-124 -87z m429 -298 c19 -3 60 -7 90 -10 30 -2 71 -7 90 -9 19 -3 64 -8 100
-11 152 -16 227 -89 235 -228 2 -49 -3 -91 -19 -142 -18 -59 -63 -113 -116
-141 -46 -23 -135 -23 -325 1 -48 6 -115 14 -190 21 -38 3 -74 8 -78 11 -4 2
-5 19 -3 36 3 18 8 59 11 92 3 33 8 74 10 90 3 17 7 57 10 90 21 236 13 217
88 210 34 -3 78 -8 97 -10z"/>
<path d="M4175 8040 c-33 -5 -94 -11 -135 -15 -77 -7 -93 -11 -86 -23 2 -4 7
-43 11 -87 4 -44 9 -88 11 -98 2 -10 6 -48 9 -85 3 -37 8 -84 10 -104 11 -86
14 -116 19 -168 8 -86 26 -261 31 -305 6 -51 13 -123 21 -205 3 -36 8 -72 10
-80 13 -37 13 -237 0 -285 -26 -98 -93 -177 -189 -220 -79 -36 -230 -46 -308
-21 -141 46 -224 166 -243 351 -4 33 -8 78 -11 100 -7 72 -25 239 -30 290 -3
28 -7 66 -9 85 -4 35 -14 124 -22 190 -2 19 -6 68 -10 108 -3 40 -7 81 -9 91
-2 10 -6 54 -10 97 -3 43 -8 86 -10 94 -2 8 -7 51 -11 95 -3 44 -8 83 -10 87
-2 4 -14 5 -27 3 -28 -4 -103 -13 -192 -21 -101 -10 -100 -9 -99 -30 2 -26 14
-153 18 -189 4 -28 10 -84 22 -200 2 -27 7 -66 9 -85 2 -19 7 -64 10 -100 4
-36 8 -76 10 -90 2 -14 6 -54 10 -90 14 -152 23 -240 30 -290 2 -14 6 -56 10
-95 3 -38 8 -81 10 -95 3 -26 18 -111 20 -120 36 -155 110 -288 207 -374 64
-57 169 -109 263 -131 63 -15 295 -23 314 -11 3 2 27 7 51 11 72 10 190 53
255 93 135 82 237 229 271 392 15 70 20 254 10 325 -2 17 -7 62 -11 100 -3 39
-8 81 -10 95 -2 14 -7 54 -10 90 -3 36 -8 81 -10 100 -8 64 -24 214 -30 285
-4 39 -8 80 -10 93 -2 13 -7 53 -10 90 -3 37 -8 81 -10 97 -2 17 -7 62 -11
100 -4 39 -8 79 -9 90 -1 11 -3 32 -4 48 -1 30 -1 30 -106 17z"/>
<path d="M1690 7638 c-226 -22 -444 -114 -580 -248 -101 -99 -146 -195 -157
-330 -12 -164 60 -371 168 -478 50 -51 166 -109 234 -118 84 -11 280 -5 365
11 59 11 162 19 250 19 77 -1 103 -5 137 -22 56 -29 90 -67 109 -124 57 -171
-63 -311 -336 -392 -153 -46 -370 -40 -510 13 l-48 18 -15 -51 c-54 -179 -70
-232 -71 -240 -1 -9 84 -41 149 -56 84 -19 103 -21 210 -26 195 -8 432 46 616
143 171 89 289 223 329 371 17 65 18 169 2 237 -7 33 -15 67 -17 75 -17 80
-95 212 -153 260 -51 42 -139 86 -201 100 -52 12 -280 16 -351 6 -47 -7 -181
-18 -255 -20 -185 -7 -291 79 -289 235 0 59 4 72 35 115 45 64 137 125 241
160 76 27 95 29 223 29 100 0 157 -5 200 -17 33 -9 66 -18 74 -20 10 -2 23 33
47 132 18 74 33 143 34 152 0 20 -141 56 -257 64 -43 3 -82 7 -88 8 -5 1 -48
-2 -95 -6z"/>
<path d="M7360 7478 c-29 -95 -70 -229 -90 -298 -21 -69 -64 -208 -95 -310
-31 -102 -106 -347 -167 -545 -60 -198 -122 -400 -138 -450 l-27 -90 131 -42
c178 -58 178 -58 194 -3 8 25 29 95 48 155 18 61 63 206 99 324 36 117 67 217
70 221 3 5 42 -3 88 -17 298 -92 663 -200 665 -198 5 4 90 289 88 292 -2 3
-549 171 -671 206 -38 11 -72 22 -74 24 -3 2 31 118 73 257 75 244 79 254 100
245 34 -15 720 -269 736 -273 8 -2 35 -12 58 -21 53 -22 51 -23 88 95 14 47
32 105 40 129 8 25 11 48 7 52 -5 4 -87 37 -183 73 -96 36 -289 108 -429 161
-140 52 -269 99 -285 104 -17 5 -84 25 -148 45 -65 20 -119 36 -121 36 -2 0
-28 -78 -57 -172z"/>
<path d="M5830 5465 c-19 -7 -163 -55 -320 -105 -307 -99 -801 -259 -890 -290
-30 -10 -162 -53 -294 -95 l-238 -77 38 -22 c22 -13 104 -58 183 -101 133 -73
143 -80 125 -93 -10 -7 -242 -137 -514 -287 -397 -220 -494 -278 -492 -292 5
-26 8 -27 39 -15 15 6 129 43 253 82 124 40 250 80 280 90 51 17 184 60 825
265 132 42 278 89 324 105 98 31 106 18 -69 115 -58 32 -117 66 -132 76 -15
11 -32 19 -38 19 -5 0 -10 4 -10 8 0 7 44 34 201 123 16 9 34 21 41 26 7 6 38
24 68 40 30 17 96 54 145 84 50 30 101 59 115 66 14 7 32 17 40 23 49 32 152
90 160 90 6 0 10 4 10 9 0 5 6 11 13 13 7 2 58 30 115 63 67 39 102 65 100 75
-4 20 -35 22 -78 5z"/>
<path d="M7870 3928 c-14 -5 -74 -28 -134 -49 -61 -22 -111 -41 -113 -43 -4
-3 138 -401 157 -441 5 -11 16 -40 24 -65 20 -62 96 -272 222 -615 24 -66 93
-253 152 -415 77 -212 112 -295 122 -294 16 2 16 2 665 239 237 86 451 164
478 172 51 17 55 25 32 75 -8 18 -31 79 -51 135 l-37 102 -91 -33 c-50 -19
-235 -86 -411 -151 -176 -64 -337 -123 -358 -131 l-38 -14 -16 38 c-8 20 -32
84 -53 142 -74 209 -292 805 -300 825 -5 11 -51 136 -102 278 -97 269 -96 267
-148 245z"/>
<path d="M831 3869 c-156 -31 -292 -133 -361 -270 -29 -57 -65 -159 -75 -214
-9 -51 -6 -173 6 -218 25 -94 94 -190 190 -262 35 -26 167 -98 300 -165 168
-83 231 -127 274 -190 62 -93 26 -239 -76 -303 -138 -89 -449 -26 -660 133
-65 49 -125 108 -165 165 l-22 29 -87 -74 c-48 -41 -101 -87 -119 -101 l-31
-26 29 -42 c42 -60 173 -182 252 -233 201 -131 430 -202 654 -202 137 0 222
18 313 69 164 92 271 298 270 520 0 132 -48 237 -148 328 -50 45 -183 131
-300 192 -239 126 -299 170 -336 250 -23 50 -24 88 -3 153 33 102 114 154 244
158 192 5 388 -86 538 -251 29 -32 56 -54 60 -50 4 4 53 50 110 102 56 53 102
100 102 105 0 17 -155 164 -220 210 -133 93 -273 153 -424 181 -86 16 -250 20
-315 6z"/>
<path d="M2303 3518 c0 -13 -4 -43 -7 -68 -4 -25 -9 -63 -11 -85 -2 -22 -6
-56 -9 -75 -3 -19 -8 -57 -11 -85 -3 -27 -7 -61 -10 -75 -2 -14 -7 -52 -10
-85 -6 -58 -8 -78 -19 -155 -3 -19 -8 -62 -11 -95 -3 -33 -8 -71 -11 -85 -2
-14 -6 -45 -9 -70 -3 -25 -8 -67 -11 -95 -3 -27 -9 -77 -14 -110 -5 -33 -12
-89 -15 -125 -4 -36 -9 -74 -11 -84 -2 -11 -6 -42 -9 -70 -5 -45 -17 -147 -29
-241 -4 -34 -16 -134 -21 -180 -2 -16 -7 -54 -10 -82 -7 -51 -6 -53 16 -54 13
0 31 -2 39 -3 21 -5 114 -16 180 -22 30 -3 61 -7 68 -9 6 -3 13 3 14 13 0 9 2
28 3 42 2 14 5 43 8 65 8 52 25 186 32 250 3 28 7 59 10 70 2 11 4 26 4 32 1
7 78 92 173 188 l171 175 109 -252 c59 -139 112 -262 118 -273 5 -11 46 -105
90 -210 45 -104 84 -193 88 -197 4 -3 52 -12 107 -18 55 -6 111 -13 125 -15
62 -9 150 -16 150 -12 0 2 -18 44 -39 93 -22 49 -83 190 -136 314 -53 124
-102 239 -110 255 -7 17 -22 50 -33 75 -11 25 -39 90 -62 145 -40 96 -50 118
-100 230 -12 28 -28 68 -36 89 l-14 39 144 146 c222 224 545 556 543 557 -2 2
-69 11 -147 20 -30 3 -99 12 -153 18 l-98 13 -97 -106 c-53 -58 -106 -115
-117 -127 -11 -11 -63 -67 -115 -124 -52 -57 -104 -113 -115 -124 -11 -12 -72
-78 -135 -146 -63 -69 -136 -147 -162 -175 -25 -27 -56 -61 -67 -75 l-21 -25
5 65 c3 36 7 76 10 90 2 14 7 50 10 80 4 30 8 66 10 80 2 14 6 52 10 85 4 32
8 67 10 77 2 9 7 48 10 85 4 37 9 75 10 83 2 9 6 43 10 75 4 33 8 71 10 85 2
14 7 52 10 85 4 33 9 68 11 78 6 20 -2 24 -81 31 -33 4 -69 8 -80 10 -11 2
-52 7 -90 11 -70 6 -71 6 -72 -17z"/>
<path d="M6215 3524 c-33 -7 -73 -16 -90 -19 -30 -4 -35 -6 -91 -19 l-30 -7
33 -167 c18 -91 35 -177 38 -189 2 -13 11 -58 19 -100 17 -87 23 -115 36 -188
5 -27 29 -156 55 -285 57 -289 83 -424 90 -469 3 -19 7 -37 9 -40 2 -3 7 -24
10 -46 3 -22 11 -62 16 -90 6 -27 12 -61 15 -75 4 -21 21 -107 30 -145 1 -5 5
-32 10 -60 4 -27 9 -53 11 -56 2 -4 45 2 96 13 51 10 104 20 118 23 22 3 85
15 160 30 14 3 41 8 60 11 19 3 37 7 40 9 3 2 26 6 50 10 25 3 63 10 85 15 22
5 56 12 75 15 19 3 42 8 50 10 8 2 29 7 45 10 38 6 44 7 272 51 106 21 196 40
202 43 5 4 0 51 -14 116 -12 61 -25 127 -29 148 -8 42 -3 41 -96 22 -22 -5
-74 -15 -150 -30 -14 -3 -59 -12 -100 -20 -41 -8 -84 -17 -95 -19 -11 -2 -99
-20 -195 -40 -96 -19 -191 -38 -210 -41 -19 -3 -50 -10 -68 -15 -36 -9 -36
-10 -46 50 -8 43 -136 707 -142 735 -3 11 -13 65 -24 120 -10 55 -38 197 -61
315 -23 118 -49 253 -58 300 -19 98 -20 98 -126 74z"/>
<path d="M5350 3413 c-8 -2 -48 -4 -89 -5 l-75 -3 3 -125 c2 -69 4 -154 6
-190 1 -36 5 -144 9 -240 3 -96 9 -251 13 -345 3 -93 6 -242 7 -330 0 -145 -2
-166 -24 -220 -30 -78 -114 -163 -185 -187 -142 -49 -289 -37 -390 32 -67 46
-101 97 -130 192 -17 59 -22 118 -30 388 -3 102 -8 232 -10 290 -2 58 -7 186
-10 285 -4 99 -8 227 -10 285 -2 58 -4 113 -4 122 -1 15 -13 17 -113 13 -62
-2 -135 -4 -161 -4 l-49 -1 6 -202 c4 -112 9 -252 11 -313 4 -112 11 -315 20
-595 8 -252 19 -324 62 -439 86 -229 277 -374 526 -397 376 -36 662 110 766
391 48 127 59 266 46 555 -4 105 -16 424 -20 560 -10 326 -17 475 -21 480 -6
5 -126 7 -154 3z"/>
</g>
</svg>
